Coordinates
version=1
nRows=38
nColumns=12
inDegrees=yes

Units are S.I. units (second, meters, Newtons, ...)
Angles are in degrees

endheader
time	SC_y	SC_z	SC_x	AC_y	AC_z	AC_x	GH_y	GH_z	GH_yy	EL_x	PS_y
       0.0              -58.27         -1.365          83.77          45.21         -10.38         -16.97         -153.1          60.53         -111.5          79.73          129.7
 0.0009185              -58.27          -1.36          83.77          45.21         -10.38         -16.97         -153.1          60.53         -111.5          79.72          129.6
  0.001837              -58.27         -1.354          83.77          45.21         -10.38         -16.97         -153.1          60.53         -111.5          79.72          129.6
  0.002755              -58.27         -1.348          83.77          45.21         -10.38         -16.96         -153.1          60.53         -111.4          79.71          129.6
  0.003674              -58.27         -1.342          83.77          45.21         -10.37         -16.96         -153.0          60.52         -111.4           79.7          129.6
  0.004592              -58.26         -1.335          83.77          45.21         -10.37         -16.96         -153.0          60.52         -111.4           79.7          129.6
  0.005511              -58.26         -1.328          83.77          45.22         -10.37         -16.96         -153.0          60.52         -111.4          79.69          129.6
  0.006429              -58.26          -1.32          83.76          45.22         -10.36         -16.96         -153.0          60.52         -111.3          79.68          129.6
  0.007348              -58.26         -1.312          83.76          45.22         -10.36         -16.96         -153.0          60.51         -111.3          79.67          129.6
  0.008266              -58.26         -1.303          83.76          45.22         -10.36         -16.95         -152.9          60.51         -111.3          79.66          129.6
  0.009185              -58.25         -1.293          83.76          45.22         -10.35         -16.95         -152.9           60.5         -111.3          79.65          129.5
    0.0101              -58.25         -1.283          83.76          45.22         -10.35         -16.95         -152.9           60.5         -111.2          79.64          129.5
   0.01102              -58.25         -1.272          83.76          45.22         -10.34         -16.95         -152.9          60.49         -111.2          79.63          129.5
   0.01194              -58.24          -1.26          83.75          45.22         -10.34         -16.94         -152.8          60.49         -111.1          79.62          129.5
   0.01286              -58.24         -1.247          83.75          45.22         -10.33         -16.94         -152.8          60.48         -111.1          79.61          129.5
   0.01378              -58.24         -1.232          83.75          45.23         -10.33         -16.94         -152.8          60.48         -111.0          79.59          129.5
    0.0147              -58.23         -1.217          83.75          45.23         -10.32         -16.94         -152.7          60.47         -111.0          79.58          129.4
   0.01561              -58.23           -1.2          83.74          45.23         -10.32         -16.93         -152.7          60.46         -110.9          79.56          129.4
   0.01653              -58.22         -1.182          83.74          45.23         -10.31         -16.93         -152.6          60.46         -110.9          79.54          129.4
   0.01745              -58.22         -1.162          83.74          45.23          -10.3         -16.92         -152.6          60.45         -110.8          79.52          129.4
   0.01837              -58.21          -1.14          83.73          45.24         -10.29         -16.92         -152.5          60.44         -110.7           79.5          129.3
   0.01929              -58.21         -1.116          83.73          45.24         -10.28         -16.91         -152.4          60.43         -110.6          79.47          129.3
   0.02021               -58.2         -1.089          83.72          45.24         -10.27         -16.91         -152.4          60.42         -110.5          79.45          129.2
   0.02113              -58.19          -1.06          83.72          45.24         -10.26          -16.9         -152.3           60.4         -110.4          79.42          129.2
   0.02204              -58.18         -1.027          83.71          45.25         -10.24         -16.89         -152.2          60.39         -110.3          79.38          129.1
   0.02296              -58.17        -0.9899          83.71          45.25         -10.23         -16.88         -152.1          60.38         -110.2          79.35          129.1
   0.02388              -58.16        -0.9487           83.7          45.26         -10.21         -16.87         -152.0          60.36         -110.0           79.3          129.0
    0.0248              -58.15        -0.9024          83.69          45.26         -10.19         -16.86         -151.9          60.34         -109.9          79.26          129.0
   0.02572              -58.14        -0.8501          83.68          45.27         -10.17         -16.85         -151.8          60.32         -109.7          79.21          128.9
   0.02664              -58.12        -0.7908          83.67          45.27         -10.15         -16.84         -151.6          60.29         -109.5          79.15          128.8
   0.02755               -58.1         -0.723          83.66          45.28         -10.12         -16.82         -151.4          60.26         -109.3          79.08          128.7
   0.02847              -58.08        -0.6452          83.65          45.29         -10.09         -16.81         -151.2          60.23         -109.0           79.0          128.6
   0.02939              -58.06        -0.5554          83.63           45.3         -10.05         -16.79         -151.0          60.19         -108.7          78.91          128.4
   0.03031              -58.03        -0.4511          83.62          45.31         -10.01         -16.76         -150.7          60.15         -108.3           78.8          128.3
   0.03123               -58.0         -0.329          83.59          45.33         -9.955         -16.73         -150.4           60.1         -107.9          78.68          128.1
   0.03215              -57.96        -0.1851          83.57          45.34         -9.895          -16.7         -150.0          60.03         -107.4          78.53          127.9
   0.03307              -57.92       -0.01408          83.54          45.36         -9.824         -16.66         -149.6          59.96         -106.8          78.36          127.6
   0.03398              -57.86         0.1909          83.51          45.38          -9.74         -16.62         -149.0          59.87         -106.0          78.15          127.3
